# xmcd
#
# Track frame offsets:
#	150
#	18677
#	35762
#	55997
#	76940
#	94532
#	115895
#	127742
#	147772
#	169487
#	196300
#	219830
#	240790
#	259735
#	275637
#	296837
#	308625
#	334637
#
# Disc length: 4637 seconds
#
# Revision: 1
# Processed by: cddbd v1.5PL3 Copyright (c) Steve Scherf et al.
# Submitted via: CDex 1.50Beta5
#
DISCID=fd121b12
DTITLE=Youssou N'Dour - Joko
DYEAR=1900
DGENRE=
TTITLE0=Wiri Wiri
TTITLE1=Birima
TTITLE2=Beykat
TTITLE3=Liggeey
TTITLE4=My Hope Is In You
TTITLE5=Don't Walk Away
TTITLE6=Please Wait
TTITLE7=Mouvement (Dunya)
TTITLE8=She Doesn't Need To Fall
TTITLE9=Yama
TTITLE10=This Dream
TTITLE11=Red Clay
TTITLE12=How Come?
TTITLE13=Don't Look Back
TTITLE14=Birima (Remix)
TTITLE15=New Africa
TTITLE16=Miss
TTITLE17=Ob-La-Di,Ob-La-Da
EXTD=
EXTT0=
EXTT1=
EXTT2=
EXTT3=
EXTT4=
EXTT5=
EXTT6=
EXTT7=
EXTT8=
EXTT9=
EXTT10=
EXTT11=
EXTT12=
EXTT13=
EXTT14=
EXTT15=
EXTT16=
EXTT17=
PLAYORDER=
